<?xml version="1.0" ?><svg enable-background="new 0 0 200 200" id="Layer_1" version="1.1" viewBox="0 0 200 200" xml:space="preserve" xmlns="http://www.w3.org/2000/svg" xmlns:xlink="http://www.w3.org/1999/xlink"><g><path d="M164.397,68.094h-16.233h-19.262V58.86c0-1.933-1.567-3.5-3.5-3.5H74.598c-1.933,0-3.5,1.567-3.5,3.5v9.234   H52.528H35.603c-1.933,0-3.5,1.567-3.5,3.5s1.567,3.5,3.5,3.5h13.426v25.545c0,14.221,10.681,25.987,24.441,27.716l-23.156,58.541   h-4.753c-1.933,0-3.5,1.567-3.5,3.5s1.567,3.5,3.5,3.5h7.121c0.003,0,0.007,0.001,0.01,0.001c0.004,0,0.009-0.001,0.013-0.001   h7.853c1.933,0,3.5-1.567,3.5-3.5s-1.567-3.5-3.5-3.5h-2.717l5.097-12.885h74.815l5.096,12.885h-2.917c-1.933,0-3.5,1.567-3.5,3.5   s1.567,3.5,3.5,3.5h8.053c0.004,0,0.009,0.001,0.013,0.001c0.003,0,0.007-0.001,0.01-0.001h6.922c1.933,0,3.5-1.567,3.5-3.5   s-1.567-3.5-3.5-3.5h-4.554l-23.164-58.562c13.777-1.809,24.449-13.618,24.449-27.881V75.094h12.733c1.933,0,3.5-1.567,3.5-3.5   S166.33,68.094,164.397,68.094z M78.098,62.36h43.805v5.734H78.098V62.36z M119.785,128.582l6.182,15.628h-51.24l6.182-15.628   H119.785z M65.707,167.011l6.25-15.8h56.778l6.25,15.8H65.707z M144.664,100.453c0,11.651-9.479,21.129-21.13,21.129h-0.482   c-0.601-0.17-1.244-0.176-1.877,0h-41.66c-0.632-0.176-1.275-0.17-1.875,0h-0.669c-11.548,0-20.943-9.395-20.943-20.943V75.094   h18.569h50.805h19.262V100.453z" fill="#1D1D1B"/><path d="M69.603,45.393c0.896,0,1.791-0.342,2.475-1.025c1.367-1.367,1.367-3.583,0-4.95   c-4.252-4.252-3.564-6.334-2.224-8.381c7.849-9.9,5.834-18.095,2.75-23.233c-0.995-1.658-3.146-2.195-4.802-1.2   c-1.657,0.995-2.195,3.145-1.2,4.802c1.839,3.065,3.6,7.994-2.314,15.386c-0.063,0.079-0.124,0.161-0.18,0.245   c-3.853,5.778-2.864,11.447,3.021,17.332C67.812,45.051,68.707,45.393,69.603,45.393z" fill="#1D1D1B"/><path d="M90.268,45.393c0.896,0,1.791-0.342,2.475-1.025c1.367-1.367,1.367-3.583,0-4.95   c-4.252-4.252-3.564-6.334-2.224-8.381c7.848-9.901,5.834-18.095,2.75-23.233c-0.994-1.658-3.146-2.195-4.802-1.2   c-1.657,0.995-2.195,3.145-1.2,4.802c1.839,3.064,3.6,7.993-2.315,15.386c-0.063,0.079-0.123,0.161-0.179,0.245   c-3.853,5.778-2.864,11.447,3.021,17.332C88.477,45.051,89.372,45.393,90.268,45.393z" fill="#1D1D1B"/><path d="M110.933,45.393c0.896,0,1.791-0.342,2.475-1.025c1.367-1.367,1.367-3.583,0-4.95   c-4.252-4.252-3.564-6.334-2.224-8.381c7.848-9.901,5.834-18.095,2.75-23.233c-0.995-1.658-3.146-2.195-4.802-1.2   c-1.657,0.995-2.195,3.145-1.2,4.802c1.839,3.064,3.6,7.993-2.315,15.386c-0.063,0.079-0.123,0.161-0.179,0.245   c-3.853,5.778-2.864,11.447,3.021,17.332C109.142,45.051,110.037,45.393,110.933,45.393z" fill="#1D1D1B"/><path d="M131.598,45.393c0.896,0,1.791-0.342,2.475-1.025c1.367-1.367,1.367-3.583,0-4.95   c-4.252-4.252-3.564-6.334-2.224-8.381c7.848-9.901,5.834-18.095,2.75-23.233c-0.995-1.658-3.146-2.195-4.802-1.2   c-1.657,0.995-2.195,3.145-1.2,4.802c1.839,3.064,3.6,7.993-2.315,15.386c-0.063,0.079-0.123,0.161-0.179,0.245   c-3.853,5.778-2.864,11.447,3.021,17.332C129.807,45.051,130.702,45.393,131.598,45.393z" fill="#1D1D1B"/><path d="M77.585,110.052c-5.74,0-10.41-4.67-10.41-10.411c0-1.933-1.567-3.5-3.5-3.5s-3.5,1.567-3.5,3.5   c0,9.6,7.811,17.411,17.41,17.411c1.933,0,3.5-1.567,3.5-3.5S79.518,110.052,77.585,110.052z" fill="#1D1D1B"/></g></svg>