<?xml version="1.0" encoding="UTF-8"?>
<svg id="Calque_1" data-name="Calque 1" xmlns="http://www.w3.org/2000/svg" viewBox="0 0 32 22.11">
  <defs>
    <style>
      .cls-1 {
        fill: none;
        stroke: #000;
        stroke-linecap: round;
        stroke-linejoin: round;
        stroke-width: 2px;
      }
    </style>
  </defs>
  <path class="cls-1" d="M27,13.81c3.15-2.75,4-7.7,4-7.7h-15.81"/>
  <polyline class="cls-1" points="12.21 1 19 14.11 18 17.11 21 21.11 24.5 19.36 22.36 14.71 19 14.11"/>
  <path class="cls-1" d="M28,18.11c1.09.04,2.15-.32,3-1"/>
  <path class="cls-1" d="M1,18.11c1-.19,1.89-.74,2.5-1.55.86,1.03,2.16,1.61,3.5,1.55,1.34.05,2.63-.52,3.5-1.54.87,1.02,2.16,1.59,3.5,1.54.47,0,.94-.06,1.4-.19"/>
  <path class="cls-1" d="M24.5,12.57c.87,1.02,2.16,1.59,3.5,1.54,1.09.04,2.15-.32,3-1"/>
  <path class="cls-1" d="M1,14.11c1-.19,1.89-.74,2.5-1.55.86,1.03,2.16,1.61,3.5,1.55,1.34.05,2.63-.52,3.5-1.54.87,1.02,2.16,1.59,3.5,1.54.52,0,1.03-.08,1.52-.23"/>
  <path class="cls-1" d="M11.2,6.11H2c1.38,2.57,2.94,5.04,4.66,7.4"/>
</svg>