<?xml version="1.0" ?><svg viewBox="0 0 64 64" xmlns="http://www.w3.org/2000/svg"><g id="a"/><g id="b"/><g id="c"/><g id="d"/><g id="e"/><g id="f"/><g id="g"/><g id="h"/><g id="i"/><g id="j"/><g id="k"/><g id="l"/><g id="m"/><g id="n"/><g id="o"/><g id="p"/><g id="q"/><g id="r"/><g id="s"/><g id="t"/><g id="u"/><g id="v"/><g id="w"/><g id="x"/><g id="y"/><g id="a`"/><g id="aa"/><g id="ab"/><g id="ac"/><g id="ad"/><g id="ae"/><g id="af"/><g id="ag"/><g id="ah"/><g id="ai"/><g id="aj"/><g id="ak"/><g id="al"><path d="M58.38,39.48c-1.12-.58-2.47-.46-3.62,.34-1.45,1.01-3.69,.92-5.31-.21-2.36-1.63-5.53-1.63-7.89,0-1.71,1.18-3.91,1.18-5.61,0-2.36-1.63-5.53-1.63-7.89,0-1.7,1.18-3.91,1.18-5.61,0-2.33-1.61-5.56-1.61-7.89,0-1.62,1.13-3.86,1.21-5.31,.21-1.15-.8-2.51-.92-3.62-.34-1.02,.53-1.62,1.54-1.62,2.71v10.39c0,2.31,1.88,4.2,4.2,4.2H55.8c2.31,0,4.2-1.88,4.2-4.2v-10.39c0-1.16-.61-2.18-1.62-2.71ZM6,46.64c0-.41,.2-.75,.55-.94,.45-.24,1.03-.16,1.56,.21,2.15,1.49,5.27,1.4,7.59-.21,1.66-1.15,3.96-1.15,5.61,0,2.36,1.63,5.53,1.63,7.89,0,1.66-1.15,3.95-1.15,5.61,0,2.36,1.63,5.53,1.63,7.89,0,1.71-1.18,3.91-1.18,5.61,0,2.32,1.61,5.44,1.69,7.59,.21,.53-.37,1.11-.44,1.56-.21,.35,.18,.55,.52,.55,.94v1.62c-1.04-.39-2.22-.24-3.25,.47-1.45,1-3.69,.92-5.31-.21-2.36-1.63-5.53-1.63-7.89,0-1.71,1.18-3.91,1.18-5.61,0-2.33-1.62-5.56-1.62-7.89,0-1.71,1.18-3.91,1.18-5.61,0-2.33-1.61-5.56-1.61-7.89,0-1.63,1.13-3.86,1.21-5.31,.21-1.03-.71-2.21-.86-3.25-.47v-1.62Zm.55-5.4c.17-.09,.36-.13,.56-.13,.32,0,.67,.12,1,.34,2.15,1.49,5.27,1.4,7.59-.21,1.66-1.15,3.95-1.15,5.61,0,2.36,1.63,5.53,1.63,7.89,0,1.7-1.18,3.91-1.18,5.61,0,2.36,1.63,5.53,1.63,7.89,0,1.71-1.18,3.91-1.18,5.61,0,2.32,1.61,5.44,1.69,7.59,.21,.53-.37,1.11-.44,1.56-.21,.35,.18,.55,.52,.55,.94v1.62c-1.04-.39-2.22-.24-3.25,.47-1.45,1.01-3.69,.92-5.31-.21-2.36-1.63-5.53-1.63-7.89,0-1.71,1.18-3.91,1.18-5.61,0-2.33-1.61-5.56-1.61-7.89,0-1.7,1.18-3.91,1.18-5.61,0-2.33-1.61-5.56-1.61-7.89,0-1.62,1.13-3.86,1.21-5.31,.21-1.03-.71-2.21-.86-3.25-.47v-1.62c0-.41,.2-.75,.55-.94Zm51.45,11.33c0,1.21-.99,2.2-2.2,2.2H8.2c-1.21,0-2.2-.99-2.2-2.2v-1.47c0-.41,.2-.75,.55-.94,.45-.23,1.03-.15,1.56,.21,2.15,1.48,5.27,1.4,7.59-.21,1.66-1.15,3.95-1.15,5.61,0,2.36,1.63,5.53,1.63,7.89,0,1.66-1.15,3.95-1.15,5.61,0,2.36,1.63,5.53,1.63,7.89,0,1.71-1.18,3.91-1.18,5.61,0,2.32,1.61,5.44,1.69,7.59,.21,.53-.37,1.11-.45,1.56-.21,.35,.18,.55,.53,.55,.94v1.47Z"/><path d="M43.65,8.24c-.75-.98-2.37-1.31-3.54-.71-.68,.34-1.64,.9-2.6,1.57-1.83-.87-3.81-1.37-5.89-1.37-3.69,0-7.16,1.44-9.77,4.05-2.36,2.36-3.79,5.54-4.01,8.85-2.55-.28-5.02,1.35-5.7,3.91l-.16,.6c-.42,1.58,.52,3.22,2.1,3.64l2.54,.68c.79,.21,1.6,.24,2.39,.09,.61,.53,1.33,.91,2.12,1.12l2.54,.68c.77,.21,1.57,.1,2.26-.29,.69-.4,1.18-1.04,1.38-1.81l.16-.59c.66-2.47-.54-5-2.73-6.12,1.36-1.18,3.15-1.59,4.87-1.23-.22,.36-.47,.74-.64,1.08-.35,.69-.38,1.5-.08,2.23,.28,.69,.83,1.21,1.5,1.43,1.44,.47,3.29,.44,5.08-.24l5.05,5.05c.64,.64,1.49,1,2.4,1h0c.9,0,1.76-.35,2.4-1,.64-.64,1-1.49,1-2.4,0-.91-.35-1.76-1-2.4-.14-.14-.21-.34-.2-.57,.02-.29,.16-.58,.42-.84,1.02-1.02,1.53-2.66,1.36-4.39-.11-1.18-.63-2.88-2.11-4.83,1.14-3.37-.2-5.93-1.15-7.17Zm-2.63,1.07c.33-.17,.88-.05,1.04,.15,.71,.92,1.36,2.33,1.13,4.12l-1.8-1.8c-.6-.6-1.25-1.11-1.93-1.58,.58-.36,1.13-.67,1.55-.89Zm-14.98,10.31c.52-.54,1.08-.97,1.73-1.21,1.42-.53,2.93-.26,4.01,.11-.35,.31-.63,.71-.94,1.08-1.6-.53-3.26-.5-4.8,.02Zm12.53,6.44l-1.26-1.26c.22-.16,.46-.25,.67-.44l.2,.2c.31,.31,.48,.72,.47,1.16,0,.12-.05,.23-.07,.34Zm5.35,1.41c.26,.26,.41,.61,.41,.98s-.15,.72-.41,.99c-.26,.26-.62,.41-.99,.41h0c-.37,0-.72-.15-.98-.41l-1.89-1.89c.33-.55,.57-1.14,.58-1.8,.01-.98-.36-1.91-1.05-2.6l-.9-.9c-.19-.19-.46-.31-.74-.29-.28,0-.54,.13-.72,.33-2.13,2.38-4.91,2.29-6.21,1.86-.16-.05-.25-.2-.28-.29-.08-.18-.07-.4,.01-.56,1.08-2.12,2.31-3.54,3.47-4.01,.35-.14,.59-.47,.62-.84,.03-.38-.15-.74-.47-.93-.15-.09-3.75-2.29-7.29-.97-3.3,1.22-5.37,5.72-4.94,6.84h0c.2,.49,.81,.65,1.06,.71,1.76,.47,2.82,2.29,2.34,4.06l-.16,.59c-.07,.25-.23,.46-.45,.59-.22,.13-.49,.16-.74,.1l-2.54-.68c-.62-.17-1.17-.5-1.6-.97-.26-.29-.67-.4-1.05-.28-.6,.19-1.25,.21-1.87,.04l-2.54-.68c-.52-.14-.83-.67-.69-1.19l.16-.6c.23-.86,.78-1.57,1.54-2.01s1.66-.56,2.52-.33l.43,.11c.64,.17,1.27-.32,1.26-.99-.08-3.22,1.18-6.37,3.45-8.65,2.23-2.23,5.2-3.46,8.36-3.46s6.13,1.23,8.36,3.46l2.02,2.02c2.21,2.21,2.81,4.07,2.92,5.23,.13,1.35-.32,2.32-.78,2.79-.6,.6-.96,1.36-1,2.14-.04,.79,.24,1.55,.78,2.09Z"/><path d="M49.07,36.52c.34,.2,.73,.3,1.16,.3,.65,0,1.39-.23,2.16-.7,.95-.57,1.81-1.41,2.26-2.18,.97-1.69,.39-3.85-1.29-4.83-1.69-.97-3.85-.39-4.83,1.29-.88,1.53-1.35,5.02,.55,6.12Zm1.18-5.12c.28-.49,.8-.77,1.33-.77,.26,0,.52,.07,.76,.2,.73,.42,.98,1.36,.56,2.1-.22,.39-.81,1.01-1.56,1.47-.69,.42-1.15,.46-1.28,.38-.46-.26-.43-2.33,.18-3.38Z"/><path d="M9.36,35.79c.45,.77,1.31,1.61,2.26,2.18,.77,.46,1.5,.7,2.16,.7,.42,0,.81-.1,1.16-.3,1.9-1.1,1.44-4.58,.55-6.12-.97-1.69-3.14-2.27-4.83-1.29-1.69,.97-2.27,3.14-1.29,4.83Zm2.29-3.1c.24-.14,.5-.21,.77-.21,.53,0,1.05,.27,1.33,.77,.61,1.05,.64,3.12,.18,3.38-.13,.07-.59,.04-1.28-.38-.75-.45-1.34-1.08-1.56-1.47h0c-.42-.73-.17-1.67,.56-2.1Z"/><path d="M28.29,30.83c0,1.77,1.34,5.02,3.53,5.02s3.53-3.25,3.53-5.02c0-1.95-1.58-3.53-3.53-3.53s-3.53,1.59-3.53,3.53Zm5.07,0c0,1.22-1.01,3.02-1.53,3.02s-1.53-1.81-1.53-3.02c0-.85,.69-1.53,1.53-1.53s1.53,.69,1.53,1.53Z"/><path d="M12.92,13.73c-1.69,0-3.07,1.38-3.07,3.07s1.38,3.07,3.07,3.07,3.07-1.38,3.07-3.07-1.38-3.07-3.07-3.07Zm0,4.14c-.58,0-1.07-.49-1.07-1.07s.49-1.07,1.07-1.07,1.07,.49,1.07,1.07-.49,1.07-1.07,1.07Z"/><path d="M50.91,26.32c1.71,0,3.09-1.39,3.09-3.09s-1.39-3.1-3.09-3.1-3.09,1.39-3.09,3.1c0,1.71,1.39,3.09,3.09,3.09Zm0-4.19c.59,0,1.09,.5,1.09,1.1s-.5,1.09-1.09,1.09c-.29,0-.56-.11-.77-.32-.21-.21-.32-.48-.32-.77,0-.59,.5-1.1,1.09-1.1Z"/></g><g id="am"/><g id="an"/><g id="ao"/><g id="ap"/><g id="aq"/><g id="ar"/><g id="as"/><g id="at"/><g id="au"/><g id="av"/><g id="aw"/><g id="ax"/></svg>